<svg t="1648480076299" class="icon" viewBox="0 0 1024 1024" version="1.1" xmlns="http://www.w3.org/2000/svg" p-id="1622" width="200" height="200"><path d="M950.9 109.7H73.1C32.9 109.7 0 142.6 0 182.9v658.3c0 40.2 32.9 73.1 73.1 73.1h877.7c40.2 0 73.1-32.9 73.1-73.1V182.9c0.1-40.3-32.8-73.2-73-73.2zM329.1 548.6c0 20.1-16.5 36.6-36.6 36.6h-73.1c-20.1 0-36.6-16.5-36.6-36.6v-73.1c0-20.1 16.5-36.6 36.6-36.6h73.1c20.1 0 36.6 16.5 36.6 36.6v73.1z m256 0c0 20.1-16.5 36.6-36.6 36.6h-73.1c-20.1 0-36.6-16.5-36.6-36.6v-73.1c0-20.1 16.5-36.6 36.6-36.6h73.1c20.1 0 36.6 16.5 36.6 36.6v73.1z m256 0c0 20.1-16.5 36.6-36.6 36.6h-73.1c-20.1 0-36.6-16.5-36.6-36.6v-73.1c0-20.1 16.5-36.6 36.6-36.6h73.1c20.1 0 36.6 16.5 36.6 36.6v73.1z" fill="#5463FF" p-id="1623"></path></svg>